# xmcd
#
# Track frame offsets:
#	150
#	16970
#	30674
#	39860
#	52226
#	71629
#	85429
#	96898
#	119490
#	135841
#	151059
#	171422
#
# Disc length: 2452 seconds
#
# Revision: 0
# Processed by: cddbd v1.4PL0 Copyright (c) Steve Scherf et al.
# Submitted via: dBpowerAMP V4.0
#
DISCID=9909920c
DTITLE=BR5-49 - Coast to Coast
DYEAR=2000
DGENRE=Country
TTITLE0=Tell Me Mama
TTITLE1=Even If It's Wrong
TTITLE2=Sweet Sweet Girl
TTITLE3=Pourin' Pain
TTITLE4=Uneasy Rider
TTITLE5=Better than this
TTITLE6=Waitin' for the Axe
TTITLE7=Brain Cloudy Blues
TTITLE8=Big Mouth Blues
TTITLE9=Six Days on the Road
TTITLE10=Cracker Jack
TTITLE11=Your'e a Hum-Dinger
EXTD=
EXTT0=
EXTT1=
EXTT2=
EXTT3=
EXTT4=
EXTT5=
EXTT6=
EXTT7=
EXTT8=
EXTT9=
EXTT10=
EXTT11=
PLAYORDER=
